#!OML:ASF H:\Terrain\Patient Classification 1\Walking\liu\liu.ASF
:FULLY-SPECIFIED
:DEGREES
453
root 10.788300 17.467800 27.643000 5.336990 1.157490 2.237420
lowerback -57.501503 -13.386801 -29.093899
upperback -12.388200 -16.395700 13.499900
thorax 20.675098 -8.368960 29.020000
lowerneck -212.127991 -40.562099 -117.291000
upperneck 242.287994 -47.401802 105.291992
head 120.372002 -18.789999 51.861702
rclavicle -0.000000 0.000000
rhumerus -447.187988 106.229004 -882.101990
rradius 343.963989
rwrist -132.460007
rhand -296.889984 -334.994019
rfingers 71.250198
rthumb -30.170700 -634.578003
lclavicle -0.000000 0.000000
lhumerus -246.490005 -130.102997 896.850952
lradius 209.125000
lwrist -41.404099
lhand -110.822998 -232.644012
lfingers 71.250198
lthumb 149.412003 61.766701
rfemur -202.422012 -24.820599 172.819000
rtibia 647.959961
rfoot -100.789001 -81.673203
rtoes -175.723999
lfemur -188.551010 35.785603 -283.761017
ltibia 261.993988
lfoot -128.179993 45.205997
ltoes 4.162360
454
root 10.796300 17.474100 27.758801 5.228100 1.318220 1.957050
lowerback -55.440403 -15.615400 -27.454901
upperback -12.453800 -19.559500 15.507099
thorax 19.702801 -9.929350 29.974998
lowerneck -212.231995 -38.229099 -116.846001
upperneck 241.678009 -44.454197 106.325996
head 119.757996 -17.289200 52.663998
rclavicle 0.000000 0.000000
rhumerus -448.214996 108.235001 -880.661987
rradius 346.623993
rwrist -136.007004
rhand -310.153992 -310.380005
rfingers 71.250198
rthumb -42.980400 -609.744019
lclavicle 0.000000 0.000000
lhumerus -238.395004 -132.811005 894.895996
lradius 211.394989
lwrist -41.027100
lhand -114.836998 -235.126984
lfingers 71.250198
lthumb 145.544998 59.567200
rfemur -212.290985 -22.020399 176.699005
rtibia 643.609009
rfoot -110.005997 -83.824799
rtoes -171.311005
lfemur -183.222992 35.243999 -280.294983
ltibia 261.604004
lfoot -130.459000 44.149399
ltoes 12.345800
455
root 10.805100 17.464300 27.869301 5.299700 1.396050 1.793900
lowerback -54.714298 -17.042101 -25.739801
upperback -13.577200 -21.594400 16.415001
thorax 18.261700 -10.902900 29.830599
lowerneck -210.856995 -35.023102 -111.850006
upperneck 243.497009 -40.375198 101.148994
head 119.373001 -15.686600 50.510101
rclavicle -0.000000 -0.000000
rhumerus -452.209015 108.115997 -879.470947
rradius 351.862976
rwrist -138.733002
rhand -315.342010 -296.330994
rfingers 71.250198
rthumb -47.989700 -595.587036
lclavicle -0.000000 -0.000000
lhumerus -231.457993 -138.171997 893.098999
lradius 213.841003
lwrist -38.875900
lhand -119.460999 -237.418991
lfingers 71.250198
lthumb 141.089996 57.590900
rfemur -225.000000 -18.633600 179.094009
rtibia 639.276978
rfoot -119.680008 -86.104897
rtoes -172.520996
lfemur -180.193008 35.881199 -278.804993
ltibia 264.652985
lfoot -136.216003 43.732201
ltoes 6.828010
456
root 10.811600 17.442200 27.980000 5.132110 1.516430 1.801190
lowerback -52.593697 -18.702499 -26.380100
upperback -12.802600 -23.828699 16.888901
thorax 18.081900 -12.031500 30.564301
lowerneck -221.194000 -37.412300 -108.797997
upperneck 251.303009 -43.508400 98.448601
head 124.771004 -16.979401 48.773998
rclavicle -0.000000 0.000000
rhumerus -453.283020 110.215996 -880.450989
rradius 355.367004
rwrist -145.042999
rhand -317.092010 -299.729004
rfingers 71.250198
rthumb -49.678997 -598.945984
lclavicle -0.000000 0.000000
lhumerus -222.611008 -147.125992 890.922974
lradius 216.786987
lwrist -32.605202
lhand -122.003006 -239.188004
lfingers 71.250198
lthumb 138.639999 55.991501
rfemur -234.272995 -15.701700 179.466003
rtibia 634.752991
rfoot -131.561005 -86.397797
rtoes -179.536987
lfemur -174.037003 36.505402 -278.878998
ltibia 266.628998
lfoot -143.033997 43.948204
ltoes 6.612380
457
root 10.816600 17.415701 28.086700 4.791620 1.706040 1.751970
lowerback -48.400402 -20.600800 -26.936399
upperback -11.617100 -26.444599 17.923401
thorax 17.227200 -13.348800 31.875301
lowerneck -214.521011 -34.065201 -110.626999
upperneck 244.880997 -40.039501 104.216003
head 120.632004 -14.961801 51.647903
rclavicle -0.000000 -0.000000
rhumerus -453.614990 111.857994 -879.854004
rradius 359.427002
rwrist -153.070999
rhand -313.108002 -305.704987
rfingers 71.250198
rthumb -45.832703 -605.009033
lclavicle -0.000000 -0.000000
lhumerus -214.787003 -158.522003 889.576050
lradius 220.904999
lwrist -22.401800
lhand -126.778000 -240.634003
lfingers 71.250198
lthumb 134.037994 54.854103
rfemur -241.651001 -13.651500 180.368988
rtibia 630.313965
rfoot -143.694000 -85.525902
rtoes -176.028992
lfemur -165.692993 35.977699 -277.847015
ltibia 265.944000
lfoot -147.057999 44.735199
ltoes 15.269001
458
root 10.823900 17.397600 28.197399 4.676590 1.830380 1.937830
lowerback -46.812801 -22.077799 -28.786299
upperback -11.553400 -28.361300 17.956999
thorax 16.642401 -14.307099 32.875099
lowerneck -216.515015 -30.741899 -103.477005
upperneck 249.407013 -35.669601 96.660095
head 121.894997 -13.278000 48.372002
rclavicle 0.000000 0.000000
rhumerus -455.807983 108.539001 -875.291016
rradius 365.435974
rwrist -154.597992
rhand -300.955017 -313.177002
rfingers 71.250198
rthumb -34.097000 -612.701965
lclavicle 0.000000 0.000000
lhumerus -209.255005 -164.717010 888.121033
lradius 225.785004
lwrist -15.217500
lhand -128.494995 -238.283005
lfingers 71.250198
lthumb 132.382004 57.313099
rfemur -251.518997 -12.738700 178.335999
rtibia 624.870972
rfoot -150.906998 -85.667107
rtoes -155.432999
lfemur -159.431000 35.912300 -279.675995
ltibia 264.936005
lfoot -149.109009 44.620499
ltoes 21.473801
459
root 10.838000 17.383400 28.329901 4.416360 2.035230 2.558570
lowerback -50.322601 -23.658298 -33.389202
upperback -6.655520 -30.067598 15.314699
thorax 23.882401 -15.375200 32.354301
lowerneck -220.223007 -32.239201 -107.203995
upperneck 246.951004 -38.228699 104.385002
head 122.257004 -13.683300 51.567001
rclavicle 0.000000 0.000000
rhumerus -451.545990 102.692001 -871.742004
rradius 368.069000
rwrist -152.138000
rhand -300.360992 -300.674988
rfingers 71.250198
rthumb -33.522999 -600.208984
lclavicle 0.000000 0.000000
lhumerus -196.492996 -167.537994 882.537964
lradius 230.214996
lwrist -12.566700
lhand -127.025002 -235.254990
lfingers 71.250198
lthumb 133.800003 60.249100
rfemur -257.837006 -14.443399 170.330994
rtibia 617.878967
rfoot -154.589005 -83.562202
rtoes -154.115997
lfemur -150.781006 36.495899 -286.511993
ltibia 265.240997
lfoot -154.182999 41.571899
ltoes 27.907600
460
root 10.843500 17.386101 28.452900 4.355490 2.495070 2.602150
lowerback -66.773300 -25.256500 -33.034901
upperback 7.389610 -31.618198 14.000700
thorax 47.742001 -16.721899 29.652599
lowerneck -230.816986 -34.687801 -105.857002
upperneck 238.630005 -40.833504 105.488998
head 121.459000 -14.252600 51.044003
rclavicle 0.000000 0.000000
rhumerus -430.129028 98.672600 -869.555969
rradius 366.851013
rwrist -157.641006
rhand -307.548004 -286.406982
rfingers 71.250198
rthumb -40.464001 -585.820007
lclavicle 0.000000 0.000000
lhumerus -165.044006 -177.635010 872.025024
lradius 233.070999
lwrist -5.176570
lhand -128.281006 -235.512009
lfingers 71.250198
lthumb 132.588989 60.071301
rfemur -265.442993 -15.097800 169.554993
rtibia 608.684021
rfoot -160.652008 -82.952408
rtoes -177.947998
lfemur -144.574005 34.028099 -286.606018
ltibia 264.404999
lfoot -158.679001 38.706100
ltoes 32.369400
